<svg width="39" height="39" viewBox="0 0 39 39" fill="none" xmlns="http://www.w3.org/2000/svg">
<path d="M32.879 6.85925C32.867 6.3071 32.4096 5.86921 31.8575 5.8812L22.8596 6.07659C22.3075 6.08858 21.8696 6.54591 21.8816 7.09807C21.8935 7.65022 22.3509 8.08811 22.903 8.07612L30.9011 7.90244L31.0748 15.9006C31.0868 16.4527 31.5441 16.8906 32.0963 16.8786C32.6485 16.8666 33.0863 16.4093 33.0744 15.8571L32.879 6.85925ZM21.8429 18.8088L32.6015 7.57255L31.1569 6.18938L20.3983 17.4256L21.8429 18.8088Z" fill="white"/>
<path d="M6.55903 31.3249C6.55494 31.8772 6.99933 32.3282 7.5516 32.3323L16.5514 32.3989C17.1036 32.403 17.5546 31.9586 17.5587 31.4064C17.5628 30.8541 17.1184 30.4031 16.5662 30.399L8.56638 30.3398L8.6256 22.34C8.62969 21.7877 8.1853 21.3367 7.63303 21.3326C7.08076 21.3285 6.62975 21.7729 6.62566 22.3252L6.55903 31.3249ZM17.9383 19.7017L6.85715 30.62L8.26086 32.0447L19.342 21.1264L17.9383 19.7017Z" fill="white"/>
</svg>
