<svg width="145" height="59" viewBox="0 0 145 59" fill="none" xmlns="http://www.w3.org/2000/svg">
<path d="M29.9336 6.65625C31.3008 6.73437 32.4238 7.26172 33.3027 8.23828C34.1816 9.19531 34.8164 10.2891 35.207 11.5195C35.5977 12.75 35.793 14.0098 35.793 15.2988C35.793 16.5879 35.5977 17.8477 35.207 19.0781C34.8359 20.3086 34.2012 21.4121 33.3027 22.3887C32.4238 23.3457 31.3008 23.8633 29.9336 23.9414H19.1523C18.625 23.9219 18.1758 23.7363 17.8047 23.3848C17.4531 23.0137 17.2676 22.5645 17.248 22.0371V14.7715C17.2676 14.2246 17.4727 13.7754 17.8633 13.4238C18.2539 13.0527 18.7227 12.8672 19.2695 12.8672C19.7969 12.8867 20.2461 13.082 20.6172 13.4531C20.9883 13.8047 21.1836 14.2441 21.2031 14.7715V19.2246C21.2031 19.752 21.4766 20.0156 22.0234 20.0156H28.9375C29.6797 19.9766 30.2949 19.6934 30.7832 19.166C31.2715 18.6387 31.623 18.043 31.8379 17.3789C32.0723 16.6953 32.1895 16.002 32.1895 15.2988C32.1895 14.5957 32.0723 13.9121 31.8379 13.248C31.623 12.5645 31.2715 11.959 30.7832 11.4316C30.2949 10.9043 29.6797 10.6211 28.9375 10.582H19.1523C17.9805 10.4844 17.3457 9.84961 17.248 8.67773C17.248 8.13086 17.4238 7.66211 17.7754 7.27148C18.1465 6.88086 18.6055 6.67578 19.1523 6.65625H29.9336ZM44.9922 23.9414C43.2734 23.8828 41.9746 23.4824 41.0957 22.7402C40.2168 21.9785 39.582 21.1289 39.1914 20.1914C38.8008 19.2344 38.6055 18.2676 38.6055 17.291C38.6055 16.2754 38.791 15.2988 39.1621 14.3613C39.5527 13.4043 40.1875 12.5547 41.0664 11.8125C41.9648 11.0508 43.0977 10.6602 44.4648 10.6406H55.5977C56.1445 10.6406 56.6035 10.8262 56.9746 11.1973C57.3652 11.5488 57.5605 11.9785 57.5605 12.4863C57.5605 13.0137 57.3652 13.4629 56.9746 13.834C56.6035 14.1855 56.1445 14.3613 55.5977 14.3613H44.6406C44.2109 14.3613 43.8301 14.5078 43.498 14.8008C43.1855 15.0938 42.9512 15.4746 42.7949 15.9434C42.6582 16.4121 42.5898 16.8711 42.5898 17.3203C42.5898 17.8086 42.6582 18.2871 42.7949 18.7559C42.9512 19.2246 43.1855 19.6055 43.498 19.8984C43.8301 20.1719 44.2109 20.3184 44.6406 20.3379H55.5977C56.1445 20.3379 56.6035 20.5137 56.9746 20.8652C57.3652 21.2168 57.5605 21.6367 57.5605 22.125C57.5605 22.6328 57.3652 23.0625 56.9746 23.4141C56.6035 23.7656 56.1445 23.9414 55.5977 23.9414H44.9922ZM57.209 17.2324C57.209 17.6035 57.043 17.9258 56.7109 18.1992C56.418 18.4531 56.0469 18.5801 55.5977 18.5801H46.0176C45.5684 18.5801 45.1875 18.4531 44.875 18.1992C44.5625 17.9258 44.4062 17.6035 44.4062 17.2324C44.4062 16.8809 44.5625 16.5684 44.875 16.2949C45.1875 16.041 45.5684 15.9141 46.0176 15.9141H55.5977C56.0469 15.9141 56.4277 16.0508 56.7402 16.3242C57.0527 16.5781 57.209 16.8809 57.209 17.2324ZM62.9512 6.1875C63.4785 6.20703 63.9277 6.40234 64.2988 6.77344C64.6699 7.125 64.8652 7.56445 64.8848 8.0918V22.4473C64.7676 23.6191 64.123 24.2539 62.9512 24.3516C62.4043 24.3516 61.9258 24.1758 61.5156 23.8242C61.125 23.4531 60.9297 22.9941 60.9297 22.4473V8.0918C60.9492 7.54492 61.1543 7.0957 61.5449 6.74414C61.9355 6.37305 62.4043 6.1875 62.9512 6.1875ZM70.627 6.1875C71.1543 6.20703 71.6035 6.40234 71.9746 6.77344C72.3457 7.125 72.541 7.56445 72.5605 8.0918V22.4473C72.4434 23.6191 71.7988 24.2539 70.627 24.3516C70.0801 24.3516 69.6016 24.1758 69.1914 23.8242C68.8008 23.4531 68.6055 22.9941 68.6055 22.4473V8.0918C68.625 7.54492 68.8301 7.0957 69.2207 6.74414C69.6113 6.37305 70.0801 6.1875 70.627 6.1875ZM92.6582 22.3887V15.3281C92.6582 14.8398 92.4043 14.5859 91.8965 14.5664H81.6426C81.2715 14.5859 80.9492 14.752 80.6758 15.0645C80.4023 15.3574 80.1973 15.709 80.0605 16.1191C79.9434 16.5098 79.8848 16.9102 79.8848 17.3203C79.8848 17.7109 79.9434 18.1113 80.0605 18.5215C80.1973 18.9121 80.4023 19.2637 80.6758 19.5762C80.9492 19.8691 81.2715 20.0156 81.6426 20.0156H89.1426C89.6895 20.0156 90.1484 20.2109 90.5195 20.6016C90.9102 20.9727 91.1055 21.4316 91.1055 21.9785C91.1055 22.5254 90.9102 22.9844 90.5195 23.3555C90.1484 23.7461 89.6895 23.9414 89.1426 23.9414H81.7598C80.3926 23.9219 79.2598 23.541 78.3613 22.7988C77.4824 22.0371 76.8477 21.1875 76.457 20.25C76.0859 19.293 75.9004 18.3066 75.9004 17.291C75.9004 16.3145 76.0957 15.3574 76.4863 14.4199C76.877 13.4629 77.5117 12.6133 78.3906 11.8711C79.2695 11.1094 80.5684 10.6992 82.2871 10.6406H94.5918C95.1387 10.6406 95.6074 10.8262 95.998 11.1973C96.3887 11.5488 96.5938 11.998 96.6133 12.5449V22.3887C96.6133 22.9355 96.4082 23.3945 95.998 23.7656C95.6074 24.1172 95.1387 24.293 94.5918 24.293C93.4199 24.1953 92.7754 23.5605 92.6582 22.3887ZM102.824 10.7578C102.648 10.8555 102.473 10.9043 102.297 10.9043C102.199 10.9043 102.102 10.8848 102.004 10.8457C101.73 10.7676 101.525 10.5918 101.389 10.3184C101.252 10.0449 101.223 9.77148 101.301 9.49805C101.379 9.20508 101.545 8.9707 101.799 8.79492C103.029 7.89648 103.693 6.75391 103.791 5.36719C103.791 5.28906 103.762 5.23047 103.703 5.19141C103.645 5.13281 103.576 5.10352 103.498 5.10352C102.834 5.10352 102.268 4.89844 101.799 4.48828C101.33 4.05859 101.096 3.49219 101.096 2.78906C101.096 2.02734 101.32 1.42188 101.77 0.972656C102.219 0.503906 102.795 0.269531 103.498 0.269531C104.436 0.269531 105.148 0.630859 105.637 1.35352C106.145 2.05664 106.398 3.05273 106.398 4.3418C106.398 7.0957 105.207 9.23438 102.824 10.7578ZM128.723 12.3398C128.723 12.8281 128.527 13.2383 128.137 13.5703C127.766 13.8828 127.307 14.0391 126.76 14.0391H114.367C114.113 14.0391 113.908 14.0879 113.752 14.1855C113.596 14.2832 113.479 14.3906 113.4 14.5078C113.322 14.6055 113.283 14.6934 113.283 14.7715C113.283 14.8691 113.322 14.9766 113.4 15.0938C113.479 15.1914 113.596 15.2891 113.752 15.3867C113.908 15.4648 114.113 15.5137 114.367 15.5332H123.947C125.178 15.5527 126.193 15.7969 126.994 16.2656C127.795 16.7148 128.361 17.252 128.693 17.877C129.045 18.4824 129.221 19.0977 129.221 19.7227C129.221 20.3281 129.045 20.9434 128.693 21.5684C128.342 22.1738 127.766 22.7109 126.965 23.1797C126.184 23.6289 125.178 23.8535 123.947 23.8535C123.732 23.873 123.576 23.8828 123.479 23.8828H112.111C111.564 23.8828 111.096 23.7266 110.705 23.4141C110.334 23.082 110.148 22.6816 110.148 22.2129C110.148 21.7246 110.344 21.3145 110.734 20.9824C111.105 20.6699 111.564 20.5137 112.111 20.5137H124.182C124.475 20.5332 124.709 20.4941 124.885 20.3965C125.08 20.2988 125.227 20.1914 125.324 20.0742C125.422 19.957 125.471 19.8398 125.471 19.7227C125.471 19.6641 125.422 19.5664 125.324 19.4297C125.227 19.2734 125.08 19.1562 124.885 19.0781C124.709 18.9805 124.475 18.9219 124.182 18.9023H114.572C113.439 18.8828 112.502 18.6484 111.76 18.1992C111.018 17.7305 110.49 17.1934 110.178 16.5879C109.865 15.9824 109.709 15.377 109.709 14.7715C109.709 14.166 109.865 13.5703 110.178 12.9844C110.51 12.3789 111.037 11.8613 111.76 11.4316C112.502 10.9824 113.439 10.7383 114.572 10.6992C114.768 10.6797 114.914 10.6699 115.012 10.6699H126.76C127.307 10.6699 127.766 10.8359 128.137 11.168C128.527 11.4805 128.723 11.8711 128.723 12.3398ZM8.41504 49.4004C8.41504 48.8535 8.60059 48.3945 8.97168 48.0234C9.3623 47.6328 9.83105 47.4375 10.3779 47.4375H14.8604L14.0986 45.2695C13.7861 44.4688 13.4736 43.7168 13.1611 43.0137C12.8682 42.291 12.5264 41.6367 12.1357 41.0508C11.7842 40.4648 11.3838 40.1523 10.9346 40.1133C10.4658 40.1523 10.0459 40.4648 9.6748 41.0508C9.30371 41.6367 8.96191 42.291 8.64941 43.0137C8.35645 43.7168 8.05371 44.4688 7.74121 45.2695L4.95801 52.8867C4.7627 53.2969 4.50879 53.6387 4.19629 53.9121C3.90332 54.166 3.4541 54.293 2.84863 54.293C2.28223 54.293 1.81348 54.0977 1.44238 53.707C1.09082 53.3164 0.93457 52.8477 0.973633 52.3008C0.993164 52.0469 1.05176 51.8125 1.14941 51.5977L4.37207 43.2773C5.27051 41.0898 6.16895 39.3223 7.06738 37.9746C7.94629 36.6465 9.23535 35.9727 10.9346 35.9531C12.6143 35.9727 13.8936 36.6465 14.7725 37.9746C15.6709 39.2832 16.5693 41.0508 17.4678 43.2773L20.6904 51.5977C20.7881 51.8125 20.8467 52.0469 20.8662 52.3008C20.9053 52.8477 20.7393 53.3164 20.3682 53.707C20.0166 54.0977 19.5576 54.293 18.9912 54.293C18.3467 54.293 17.8682 54.166 17.5557 53.9121C17.2627 53.6387 17.0186 53.2969 16.8232 52.8867L16.2666 51.3633H10.3779C9.83105 51.3633 9.37207 51.168 9.00098 50.7773C8.61035 50.4062 8.41504 49.9473 8.41504 49.4004ZM27.751 56.4902C27.6338 57.6621 26.9893 58.2969 25.8174 58.3945C25.2705 58.3945 24.792 58.209 24.3818 57.8379C23.9912 57.4863 23.7959 57.0371 23.7959 56.4902V42.5449C23.8154 41.998 24.0205 41.5488 24.4111 41.1973C24.8018 40.8262 25.2705 40.6406 25.8174 40.6406H38.1221C39.8408 40.6992 41.1396 41.1094 42.0186 41.8711C42.8975 42.6133 43.5322 43.4629 43.9229 44.4199C44.3135 45.3574 44.5088 46.3145 44.5088 47.291C44.5088 48.3066 44.3135 49.293 43.9229 50.25C43.5518 51.1875 42.917 52.0371 42.0186 52.7988C41.1396 53.541 40.0166 53.9219 38.6494 53.9414H31.2666C30.7197 53.9414 30.2607 53.7461 29.8896 53.3555C29.499 52.9844 29.3037 52.5254 29.3037 51.9785C29.3037 51.4316 29.4893 50.9727 29.8604 50.6016C30.251 50.2109 30.7197 50.0156 31.2666 50.0156H38.7666C39.1377 50.0156 39.46 49.8691 39.7334 49.5762C40.0068 49.2637 40.2021 48.9121 40.3193 48.5215C40.4561 48.1113 40.5244 47.7109 40.5244 47.3203C40.5244 46.9102 40.4561 46.5098 40.3193 46.1191C40.2021 45.709 40.0068 45.3574 39.7334 45.0645C39.46 44.752 39.1377 44.5859 38.7666 44.5664H28.5127C28.0049 44.5859 27.751 44.8398 27.751 45.3281V56.4902ZM52.0381 56.4902C51.9209 57.6621 51.2764 58.2969 50.1045 58.3945C49.5576 58.3945 49.0791 58.209 48.6689 57.8379C48.2783 57.4863 48.083 57.0371 48.083 56.4902V42.5449C48.1025 41.998 48.3076 41.5488 48.6982 41.1973C49.0889 40.8262 49.5576 40.6406 50.1045 40.6406H62.4092C64.1279 40.6992 65.4268 41.1094 66.3057 41.8711C67.1846 42.6133 67.8193 43.4629 68.21 44.4199C68.6006 45.3574 68.7959 46.3145 68.7959 47.291C68.7959 48.3066 68.6006 49.293 68.21 50.25C67.8389 51.1875 67.2041 52.0371 66.3057 52.7988C65.4268 53.541 64.3037 53.9219 62.9365 53.9414H55.5537C55.0068 53.9414 54.5479 53.7461 54.1768 53.3555C53.7861 52.9844 53.5908 52.5254 53.5908 51.9785C53.5908 51.4316 53.7764 50.9727 54.1475 50.6016C54.5381 50.2109 55.0068 50.0156 55.5537 50.0156H63.0537C63.4248 50.0156 63.7471 49.8691 64.0205 49.5762C64.2939 49.2637 64.4893 48.9121 64.6064 48.5215C64.7432 48.1113 64.8115 47.7109 64.8115 47.3203C64.8115 46.9102 64.7432 46.5098 64.6064 46.1191C64.4893 45.709 64.2939 45.3574 64.0205 45.0645C63.7471 44.752 63.4248 44.5859 63.0537 44.5664H52.7998C52.292 44.5859 52.0381 44.8398 52.0381 45.3281V56.4902ZM88.7471 52.3887V45.3281C88.7471 44.8398 88.4932 44.5859 87.9854 44.5664H77.7314C77.3604 44.5859 77.0381 44.752 76.7646 45.0645C76.4912 45.3574 76.2861 45.709 76.1494 46.1191C76.0322 46.5098 75.9736 46.9102 75.9736 47.3203C75.9736 47.7109 76.0322 48.1113 76.1494 48.5215C76.2861 48.9121 76.4912 49.2637 76.7646 49.5762C77.0381 49.8691 77.3604 50.0156 77.7314 50.0156H85.2314C85.7783 50.0156 86.2373 50.2109 86.6084 50.6016C86.999 50.9727 87.1943 51.4316 87.1943 51.9785C87.1943 52.5254 86.999 52.9844 86.6084 53.3555C86.2373 53.7461 85.7783 53.9414 85.2314 53.9414H77.8486C76.4814 53.9219 75.3486 53.541 74.4502 52.7988C73.5713 52.0371 72.9365 51.1875 72.5459 50.25C72.1748 49.293 71.9893 48.3066 71.9893 47.291C71.9893 46.3145 72.1846 45.3574 72.5752 44.4199C72.9658 43.4629 73.6006 42.6133 74.4795 41.8711C75.3584 41.1094 76.6572 40.6992 78.376 40.6406H90.6807C91.2275 40.6406 91.6963 40.8262 92.0869 41.1973C92.4775 41.5488 92.6826 41.998 92.7021 42.5449V52.3887C92.7021 52.9355 92.4971 53.3945 92.0869 53.7656C91.6963 54.1172 91.2275 54.293 90.6807 54.293C89.5088 54.1953 88.8643 53.5605 88.7471 52.3887ZM97.0967 44.332C97.4678 43.3945 98.0928 42.5547 98.9717 41.8125C99.8701 41.0508 101.003 40.6602 102.37 40.6406H113.386C113.933 40.6406 114.392 40.8359 114.763 41.2266C115.153 41.5977 115.349 42.0566 115.349 42.6035C115.349 43.1504 115.153 43.6191 114.763 44.0098C114.392 44.3809 113.933 44.5664 113.386 44.5664H102.253C101.882 44.5664 101.56 44.7227 101.286 45.0352C101.013 45.3281 100.798 45.6797 100.642 46.0898C100.505 46.5 100.437 46.8906 100.437 47.2617V52.3887C100.319 53.5605 99.6748 54.1953 98.5029 54.293C97.9561 54.293 97.4775 54.1172 97.0674 53.7656C96.6768 53.3945 96.4814 52.9355 96.4814 52.3887V47.291H96.5107C96.5107 46.2754 96.7061 45.2891 97.0967 44.332ZM124.255 53.9414C122.536 53.8828 121.237 53.4824 120.358 52.7402C119.479 51.9785 118.845 51.1289 118.454 50.1914C118.063 49.2344 117.868 48.2676 117.868 47.291C117.868 46.2754 118.054 45.2988 118.425 44.3613C118.815 43.4043 119.45 42.5547 120.329 41.8125C121.228 41.0508 122.36 40.6602 123.728 40.6406H134.86C135.407 40.6406 135.866 40.8262 136.237 41.1973C136.628 41.5488 136.823 41.9785 136.823 42.4863C136.823 43.0137 136.628 43.4629 136.237 43.834C135.866 44.1855 135.407 44.3613 134.86 44.3613H123.903C123.474 44.3613 123.093 44.5078 122.761 44.8008C122.448 45.0938 122.214 45.4746 122.058 45.9434C121.921 46.4121 121.853 46.8711 121.853 47.3203C121.853 47.8086 121.921 48.2871 122.058 48.7559C122.214 49.2246 122.448 49.6055 122.761 49.8984C123.093 50.1719 123.474 50.3184 123.903 50.3379H134.86C135.407 50.3379 135.866 50.5137 136.237 50.8652C136.628 51.2168 136.823 51.6367 136.823 52.125C136.823 52.6328 136.628 53.0625 136.237 53.4141C135.866 53.7656 135.407 53.9414 134.86 53.9414H124.255ZM136.472 47.2324C136.472 47.6035 136.306 47.9258 135.974 48.1992C135.681 48.4531 135.31 48.5801 134.86 48.5801H125.28C124.831 48.5801 124.45 48.4531 124.138 48.1992C123.825 47.9258 123.669 47.6035 123.669 47.2324C123.669 46.8809 123.825 46.5684 124.138 46.2949C124.45 46.041 124.831 45.9141 125.28 45.9141H134.86C135.31 45.9141 135.69 46.0508 136.003 46.3242C136.315 46.5781 136.472 46.8809 136.472 47.2324ZM142.214 36.1875C142.741 36.207 143.19 36.4023 143.562 36.7734C143.933 37.125 144.128 37.5645 144.147 38.0918V52.4473C144.03 53.6191 143.386 54.2539 142.214 54.3516C141.667 54.3516 141.188 54.1758 140.778 53.8242C140.388 53.4531 140.192 52.9941 140.192 52.4473V38.0918C140.212 37.5449 140.417 37.0957 140.808 36.7441C141.198 36.373 141.667 36.1875 142.214 36.1875Z" fill="white"/>
</svg>
