<svg width="148" height="40" viewBox="0 0 148 40" fill="none" xmlns="http://www.w3.org/2000/svg">
<path d="M33.8145 13.9336C33.8145 13.569 33.9382 13.263 34.1855 13.0156C34.446 12.7552 34.7585 12.625 35.123 12.625H38.1113L37.6035 11.1797C37.3952 10.6458 37.1868 10.1445 36.9785 9.67578C36.7832 9.19401 36.5553 8.75781 36.2949 8.36719C36.0605 7.97656 35.7936 7.76823 35.4941 7.74219C35.1816 7.76823 34.9017 7.97656 34.6543 8.36719C34.4069 8.75781 34.179 9.19401 33.9707 9.67578C33.7754 10.1445 33.5736 10.6458 33.3652 11.1797L31.5098 16.2578C31.3796 16.5312 31.2103 16.7591 31.002 16.9414C30.8066 17.1107 30.5072 17.1953 30.1035 17.1953C29.7259 17.1953 29.4134 17.0651 29.166 16.8047C28.9316 16.5443 28.8275 16.2318 28.8535 15.8672C28.8665 15.6979 28.9056 15.5417 28.9707 15.3984L31.1191 9.85156C31.7181 8.39323 32.3171 7.21484 32.916 6.31641C33.502 5.43099 34.3613 4.98177 35.4941 4.96875C36.6139 4.98177 37.4668 5.43099 38.0527 6.31641C38.6517 7.1888 39.2507 8.36719 39.8496 9.85156L41.998 15.3984C42.0632 15.5417 42.1022 15.6979 42.1152 15.8672C42.1413 16.2318 42.0306 16.5443 41.7832 16.8047C41.5488 17.0651 41.2428 17.1953 40.8652 17.1953C40.4355 17.1953 40.1165 17.1107 39.9082 16.9414C39.7129 16.7591 39.5501 16.5312 39.4199 16.2578L39.0488 15.2422H35.123C34.7585 15.2422 34.4525 15.112 34.2051 14.8516C33.9447 14.6042 33.8145 14.2982 33.8145 13.9336ZM54.9473 6.39453C55.0254 5.61328 55.4551 5.1901 56.2363 5.125C56.6009 5.125 56.9134 5.2487 57.1738 5.49609C57.4473 5.73047 57.584 6.02995 57.584 6.39453V15.6914C57.571 16.056 57.4342 16.362 57.1738 16.6094C56.9134 16.8438 56.6009 16.9609 56.2363 16.9609H48.0332C46.8874 16.9219 46.0215 16.6549 45.4355 16.1602C44.8496 15.6523 44.4264 15.0859 44.166 14.4609C43.9056 13.8229 43.7754 13.1784 43.7754 12.5273C43.7754 11.8503 43.8991 11.1992 44.1465 10.5742C44.4069 9.9362 44.8301 9.36979 45.416 8.875C46.015 8.36719 46.7702 8.10677 47.6816 8.09375H52.6035C52.9681 8.09375 53.2741 8.22396 53.5215 8.48438C53.7819 8.73177 53.9121 9.03776 53.9121 9.40234C53.9121 9.76693 53.7819 10.0794 53.5215 10.3398C53.2741 10.5872 52.9681 10.7109 52.6035 10.7109H47.6035C47.3561 10.7109 47.1413 10.8151 46.959 11.0234C46.7767 11.2188 46.64 11.4531 46.5488 11.7266C46.4707 11.987 46.4316 12.2474 46.4316 12.5078C46.4316 12.7812 46.4707 13.0547 46.5488 13.3281C46.64 13.5885 46.7767 13.8229 46.959 14.0312C47.1413 14.2266 47.3561 14.3307 47.6035 14.3438H54.4395C54.778 14.3307 54.9473 14.1615 54.9473 13.8359V6.39453ZM64.166 16.9609C63.0202 16.9219 62.1543 16.6549 61.5684 16.1602C60.9824 15.6523 60.5592 15.0859 60.2988 14.4609C60.0384 13.8229 59.9082 13.1784 59.9082 12.5273C59.9082 11.8503 60.0319 11.1992 60.2793 10.5742C60.5397 9.9362 60.9629 9.36979 61.5488 8.875C62.1478 8.36719 62.903 8.10677 63.8145 8.09375H71.2363C71.6009 8.09375 71.9069 8.21745 72.1543 8.46484C72.4147 8.69922 72.5449 8.98568 72.5449 9.32422C72.5449 9.67578 72.4147 9.97526 72.1543 10.2227C71.9069 10.457 71.6009 10.5742 71.2363 10.5742H63.9316C63.6452 10.5742 63.3913 10.6719 63.1699 10.8672C62.9616 11.0625 62.8053 11.3164 62.7012 11.6289C62.61 11.9414 62.5645 12.2474 62.5645 12.5469C62.5645 12.8724 62.61 13.1914 62.7012 13.5039C62.8053 13.8164 62.9616 14.0703 63.1699 14.2656C63.3913 14.4479 63.6452 14.5456 63.9316 14.5586H71.2363C71.6009 14.5586 71.9069 14.6758 72.1543 14.9102C72.4147 15.1445 72.5449 15.4245 72.5449 15.75C72.5449 16.0885 72.4147 16.375 72.1543 16.6094C71.9069 16.8438 71.6009 16.9609 71.2363 16.9609H64.166ZM72.3105 12.4883C72.3105 12.7357 72.1999 12.9505 71.9785 13.1328C71.7832 13.3021 71.5358 13.3867 71.2363 13.3867H64.8496C64.5501 13.3867 64.2962 13.3021 64.0879 13.1328C63.8796 12.9505 63.7754 12.7357 63.7754 12.4883C63.7754 12.2539 63.8796 12.0456 64.0879 11.8633C64.2962 11.694 64.5501 11.6094 64.8496 11.6094H71.2363C71.5358 11.6094 71.7897 11.7005 71.998 11.8828C72.2064 12.0521 72.3105 12.2539 72.3105 12.4883ZM76.1387 5.125C76.4902 5.13802 76.7897 5.26823 77.0371 5.51562C77.2845 5.75 77.4147 6.04297 77.4277 6.39453V15.9648C77.3496 16.7461 76.9199 17.1693 76.1387 17.2344C75.7741 17.2344 75.4551 17.1172 75.1816 16.8828C74.9212 16.6354 74.791 16.3294 74.791 15.9648V6.39453C74.804 6.02995 74.9408 5.73047 75.2012 5.49609C75.4616 5.2487 75.7741 5.125 76.1387 5.125ZM81.2559 5.125C81.6074 5.13802 81.9069 5.26823 82.1543 5.51562C82.4017 5.75 82.5319 6.04297 82.5449 6.39453V15.9648C82.4668 16.7461 82.0371 17.1693 81.2559 17.2344C80.8913 17.2344 80.5723 17.1172 80.2988 16.8828C80.0384 16.6354 79.9082 16.3294 79.9082 15.9648V6.39453C79.9212 6.02995 80.0579 5.73047 80.3184 5.49609C80.5788 5.2487 80.8913 5.125 81.2559 5.125ZM89.0293 16.9609C87.8835 16.9219 87.0176 16.6549 86.4316 16.1602C85.8457 15.6523 85.4225 15.0859 85.1621 14.4609C84.9017 13.8229 84.7715 13.1784 84.7715 12.5273C84.7715 11.8503 84.8952 11.1992 85.1426 10.5742C85.403 9.9362 85.8262 9.36979 86.4121 8.875C87.0111 8.36719 87.7663 8.10677 88.6777 8.09375H96.0996C96.4642 8.09375 96.7702 8.21745 97.0176 8.46484C97.278 8.69922 97.4082 8.98568 97.4082 9.32422C97.4082 9.67578 97.278 9.97526 97.0176 10.2227C96.7702 10.457 96.4642 10.5742 96.0996 10.5742H88.7949C88.5085 10.5742 88.2546 10.6719 88.0332 10.8672C87.8249 11.0625 87.6686 11.3164 87.5645 11.6289C87.4733 11.9414 87.4277 12.2474 87.4277 12.5469C87.4277 12.8724 87.4733 13.1914 87.5645 13.5039C87.6686 13.8164 87.8249 14.0703 88.0332 14.2656C88.2546 14.4479 88.5085 14.5456 88.7949 14.5586H96.0996C96.4642 14.5586 96.7702 14.6758 97.0176 14.9102C97.278 15.1445 97.4082 15.4245 97.4082 15.75C97.4082 16.0885 97.278 16.375 97.0176 16.6094C96.7702 16.8438 96.4642 16.9609 96.0996 16.9609H89.0293ZM97.1738 12.4883C97.1738 12.7357 97.0632 12.9505 96.8418 13.1328C96.6465 13.3021 96.3991 13.3867 96.0996 13.3867H89.7129C89.4134 13.3867 89.1595 13.3021 88.9512 13.1328C88.7428 12.9505 88.6387 12.7357 88.6387 12.4883C88.6387 12.2539 88.7428 12.0456 88.9512 11.8633C89.1595 11.694 89.4134 11.6094 89.7129 11.6094H96.0996C96.3991 11.6094 96.653 11.7005 96.8613 11.8828C97.0697 12.0521 97.1738 12.2539 97.1738 12.4883ZM101.275 8.17188C101.158 8.23698 101.041 8.26953 100.924 8.26953C100.859 8.26953 100.794 8.25651 100.729 8.23047C100.546 8.17839 100.41 8.0612 100.318 7.87891C100.227 7.69661 100.208 7.51432 100.26 7.33203C100.312 7.13672 100.423 6.98047 100.592 6.86328C101.412 6.26432 101.855 5.5026 101.92 4.57812C101.92 4.52604 101.9 4.48698 101.861 4.46094C101.822 4.42188 101.777 4.40234 101.725 4.40234C101.282 4.40234 100.904 4.26562 100.592 3.99219C100.279 3.70573 100.123 3.32812 100.123 2.85938C100.123 2.35156 100.273 1.94792 100.572 1.64844C100.872 1.33594 101.256 1.17969 101.725 1.17969C102.35 1.17969 102.825 1.42057 103.15 1.90234C103.489 2.37109 103.658 3.03516 103.658 3.89453C103.658 5.73047 102.864 7.15625 101.275 8.17188ZM118.541 9.22656C118.541 9.55208 118.411 9.82552 118.15 10.0469C117.903 10.2552 117.597 10.3594 117.232 10.3594H108.971C108.801 10.3594 108.665 10.3919 108.561 10.457C108.456 10.5221 108.378 10.5938 108.326 10.6719C108.274 10.737 108.248 10.7956 108.248 10.8477C108.248 10.9128 108.274 10.9844 108.326 11.0625C108.378 11.1276 108.456 11.1927 108.561 11.2578C108.665 11.3099 108.801 11.3424 108.971 11.3555H115.357C116.178 11.3685 116.855 11.5312 117.389 11.8438C117.923 12.1432 118.3 12.5013 118.521 12.918C118.756 13.3216 118.873 13.7318 118.873 14.1484C118.873 14.5521 118.756 14.9622 118.521 15.3789C118.287 15.7826 117.903 16.1406 117.369 16.4531C116.848 16.7526 116.178 16.9023 115.357 16.9023C115.214 16.9154 115.11 16.9219 115.045 16.9219H107.467C107.102 16.9219 106.79 16.8177 106.529 16.6094C106.282 16.388 106.158 16.1211 106.158 15.8086C106.158 15.4831 106.288 15.2096 106.549 14.9883C106.796 14.7799 107.102 14.6758 107.467 14.6758H115.514C115.709 14.6888 115.865 14.6628 115.982 14.5977C116.113 14.5326 116.21 14.4609 116.275 14.3828C116.34 14.3047 116.373 14.2266 116.373 14.1484C116.373 14.1094 116.34 14.0443 116.275 13.9531C116.21 13.849 116.113 13.7708 115.982 13.7188C115.865 13.6536 115.709 13.6146 115.514 13.6016H109.107C108.352 13.5885 107.727 13.4323 107.232 13.1328C106.738 12.8203 106.386 12.4622 106.178 12.0586C105.969 11.6549 105.865 11.2513 105.865 10.8477C105.865 10.444 105.969 10.0469 106.178 9.65625C106.399 9.2526 106.751 8.90755 107.232 8.62109C107.727 8.32161 108.352 8.15885 109.107 8.13281C109.238 8.11979 109.335 8.11328 109.4 8.11328H117.232C117.597 8.11328 117.903 8.22396 118.15 8.44531C118.411 8.65365 118.541 8.91406 118.541 9.22656ZM30.9434 33.9336C30.9434 33.569 31.0671 33.263 31.3145 33.0156C31.5749 32.7552 31.8874 32.625 32.252 32.625H35.2402L34.7324 31.1797C34.5241 30.6458 34.3158 30.1445 34.1074 29.6758C33.9121 29.194 33.6842 28.7578 33.4238 28.3672C33.1895 27.9766 32.9225 27.7682 32.623 27.7422C32.3105 27.7682 32.0306 27.9766 31.7832 28.3672C31.5358 28.7578 31.3079 29.194 31.0996 29.6758C30.9043 30.1445 30.7025 30.6458 30.4941 31.1797L28.6387 36.2578C28.5085 36.5312 28.3392 36.7591 28.1309 36.9414C27.9355 37.1107 27.6361 37.1953 27.2324 37.1953C26.8548 37.1953 26.5423 37.0651 26.2949 36.8047C26.0605 36.5443 25.9564 36.2318 25.9824 35.8672C25.9954 35.6979 26.0345 35.5417 26.0996 35.3984L28.248 29.8516C28.847 28.3932 29.446 27.2148 30.0449 26.3164C30.6309 25.431 31.4902 24.9818 32.623 24.9688C33.7428 24.9818 34.5957 25.431 35.1816 26.3164C35.7806 27.1888 36.3796 28.3672 36.9785 29.8516L39.127 35.3984C39.1921 35.5417 39.2311 35.6979 39.2441 35.8672C39.2702 36.2318 39.1595 36.5443 38.9121 36.8047C38.6777 37.0651 38.3717 37.1953 37.9941 37.1953C37.5645 37.1953 37.2454 37.1107 37.0371 36.9414C36.8418 36.7591 36.679 36.5312 36.5488 36.2578L36.1777 35.2422H32.252C31.8874 35.2422 31.5814 35.112 31.334 34.8516C31.0736 34.6042 30.9434 34.2982 30.9434 33.9336ZM43.834 38.6602C43.7559 39.4414 43.3262 39.8646 42.5449 39.9297C42.1803 39.9297 41.8613 39.806 41.5879 39.5586C41.3275 39.3242 41.1973 39.0247 41.1973 38.6602V29.3633C41.2103 28.9987 41.347 28.6992 41.6074 28.4648C41.8678 28.2174 42.1803 28.0938 42.5449 28.0938H50.748C51.8939 28.1328 52.7598 28.4062 53.3457 28.9141C53.9316 29.4089 54.3548 29.9753 54.6152 30.6133C54.8757 31.2383 55.0059 31.8763 55.0059 32.5273C55.0059 33.2044 54.8757 33.862 54.6152 34.5C54.3678 35.125 53.9447 35.6914 53.3457 36.1992C52.7598 36.694 52.0111 36.9479 51.0996 36.9609H46.1777C45.8132 36.9609 45.5072 36.8307 45.2598 36.5703C44.9993 36.3229 44.8691 36.0169 44.8691 35.6523C44.8691 35.2878 44.9928 34.9818 45.2402 34.7344C45.5007 34.474 45.8132 34.3438 46.1777 34.3438H51.1777C51.4251 34.3438 51.64 34.2461 51.8223 34.0508C52.0046 33.8424 52.1348 33.6081 52.2129 33.3477C52.304 33.0742 52.3496 32.8073 52.3496 32.5469C52.3496 32.2734 52.304 32.0065 52.2129 31.7461C52.1348 31.4727 52.0046 31.2383 51.8223 31.043C51.64 30.8346 51.4251 30.724 51.1777 30.7109H44.3418C44.0033 30.724 43.834 30.8932 43.834 31.2188V38.6602ZM60.0254 38.6602C59.9473 39.4414 59.5176 39.8646 58.7363 39.9297C58.3717 39.9297 58.0527 39.806 57.7793 39.5586C57.5189 39.3242 57.3887 39.0247 57.3887 38.6602V29.3633C57.4017 28.9987 57.5384 28.6992 57.7988 28.4648C58.0592 28.2174 58.3717 28.0938 58.7363 28.0938H66.9395C68.0853 28.1328 68.9512 28.4062 69.5371 28.9141C70.123 29.4089 70.5462 29.9753 70.8066 30.6133C71.0671 31.2383 71.1973 31.8763 71.1973 32.5273C71.1973 33.2044 71.0671 33.862 70.8066 34.5C70.5592 35.125 70.1361 35.6914 69.5371 36.1992C68.9512 36.694 68.2025 36.9479 67.291 36.9609H62.3691C62.0046 36.9609 61.6986 36.8307 61.4512 36.5703C61.1908 36.3229 61.0605 36.0169 61.0605 35.6523C61.0605 35.2878 61.1842 34.9818 61.4316 34.7344C61.6921 34.474 62.0046 34.3438 62.3691 34.3438H67.3691C67.6165 34.3438 67.8314 34.2461 68.0137 34.0508C68.196 33.8424 68.3262 33.6081 68.4043 33.3477C68.4954 33.0742 68.541 32.8073 68.541 32.5469C68.541 32.2734 68.4954 32.0065 68.4043 31.7461C68.3262 31.4727 68.196 31.2383 68.0137 31.043C67.8314 30.8346 67.6165 30.724 67.3691 30.7109H60.5332C60.1947 30.724 60.0254 30.8932 60.0254 31.2188V38.6602ZM84.498 35.9258V31.2188C84.498 30.8932 84.3288 30.724 83.9902 30.7109H77.1543C76.9069 30.724 76.6921 30.8346 76.5098 31.043C76.3275 31.2383 76.1908 31.4727 76.0996 31.7461C76.0215 32.0065 75.9824 32.2734 75.9824 32.5469C75.9824 32.8073 76.0215 33.0742 76.0996 33.3477C76.1908 33.6081 76.3275 33.8424 76.5098 34.0508C76.6921 34.2461 76.9069 34.3438 77.1543 34.3438H82.1543C82.5189 34.3438 82.8249 34.474 83.0723 34.7344C83.3327 34.9818 83.4629 35.2878 83.4629 35.6523C83.4629 36.0169 83.3327 36.3229 83.0723 36.5703C82.8249 36.8307 82.5189 36.9609 82.1543 36.9609H77.2324C76.321 36.9479 75.5658 36.694 74.9668 36.1992C74.3809 35.6914 73.9577 35.125 73.6973 34.5C73.4499 33.862 73.3262 33.2044 73.3262 32.5273C73.3262 31.8763 73.4564 31.2383 73.7168 30.6133C73.9772 29.9753 74.4004 29.4089 74.9863 28.9141C75.5723 28.4062 76.4382 28.1328 77.584 28.0938H85.7871C86.1517 28.0938 86.4642 28.2174 86.7246 28.4648C86.985 28.6992 87.1217 28.9987 87.1348 29.3633V35.9258C87.1348 36.2904 86.998 36.5964 86.7246 36.8438C86.4642 37.0781 86.1517 37.1953 85.7871 37.1953C85.0059 37.1302 84.5762 36.707 84.498 35.9258ZM90.0645 30.5547C90.3118 29.9297 90.7285 29.3698 91.3145 28.875C91.9134 28.3672 92.6686 28.1068 93.5801 28.0938H100.924C101.288 28.0938 101.594 28.224 101.842 28.4844C102.102 28.7318 102.232 29.0378 102.232 29.4023C102.232 29.7669 102.102 30.0794 101.842 30.3398C101.594 30.5872 101.288 30.7109 100.924 30.7109H93.502C93.2546 30.7109 93.0397 30.8151 92.8574 31.0234C92.6751 31.2188 92.5319 31.4531 92.4277 31.7266C92.3366 32 92.291 32.2604 92.291 32.5078V35.9258C92.2129 36.707 91.7832 37.1302 91.002 37.1953C90.6374 37.1953 90.3184 37.0781 90.0449 36.8438C89.7845 36.5964 89.6543 36.2904 89.6543 35.9258V32.5273H89.6738C89.6738 31.8503 89.804 31.1927 90.0645 30.5547ZM108.17 36.9609C107.024 36.9219 106.158 36.6549 105.572 36.1602C104.986 35.6523 104.563 35.0859 104.303 34.4609C104.042 33.8229 103.912 33.1784 103.912 32.5273C103.912 31.8503 104.036 31.1992 104.283 30.5742C104.544 29.9362 104.967 29.3698 105.553 28.875C106.152 28.3672 106.907 28.1068 107.818 28.0938H115.24C115.605 28.0938 115.911 28.2174 116.158 28.4648C116.419 28.6992 116.549 28.9857 116.549 29.3242C116.549 29.6758 116.419 29.9753 116.158 30.2227C115.911 30.457 115.605 30.5742 115.24 30.5742H107.936C107.649 30.5742 107.395 30.6719 107.174 30.8672C106.965 31.0625 106.809 31.3164 106.705 31.6289C106.614 31.9414 106.568 32.2474 106.568 32.5469C106.568 32.8724 106.614 33.1914 106.705 33.5039C106.809 33.8164 106.965 34.0703 107.174 34.2656C107.395 34.4479 107.649 34.5456 107.936 34.5586H115.24C115.605 34.5586 115.911 34.6758 116.158 34.9102C116.419 35.1445 116.549 35.4245 116.549 35.75C116.549 36.0885 116.419 36.375 116.158 36.6094C115.911 36.8438 115.605 36.9609 115.24 36.9609H108.17ZM116.314 32.4883C116.314 32.7357 116.204 32.9505 115.982 33.1328C115.787 33.3021 115.54 33.3867 115.24 33.3867H108.854C108.554 33.3867 108.3 33.3021 108.092 33.1328C107.883 32.9505 107.779 32.7357 107.779 32.4883C107.779 32.2539 107.883 32.0456 108.092 31.8633C108.3 31.694 108.554 31.6094 108.854 31.6094H115.24C115.54 31.6094 115.794 31.7005 116.002 31.8828C116.21 32.0521 116.314 32.2539 116.314 32.4883ZM120.143 25.125C120.494 25.138 120.794 25.2682 121.041 25.5156C121.288 25.75 121.419 26.043 121.432 26.3945V35.9648C121.354 36.7461 120.924 37.1693 120.143 37.2344C119.778 37.2344 119.459 37.1172 119.186 36.8828C118.925 36.6354 118.795 36.3294 118.795 35.9648V26.3945C118.808 26.0299 118.945 25.7305 119.205 25.4961C119.465 25.2487 119.778 25.125 120.143 25.125Z" fill="white"/>
</svg>
