<svg width="148" height="61" viewBox="0 0 148 61" fill="none" xmlns="http://www.w3.org/2000/svg">
<path d="M13.7217 21.4004C13.7217 20.8535 13.9072 20.3945 14.2783 20.0234C14.6689 19.6328 15.1377 19.4375 15.6846 19.4375H20.167L19.4053 17.2695C19.0928 16.4688 18.7803 15.7168 18.4678 15.0137C18.1748 14.291 17.833 13.6367 17.4424 13.0508C17.0908 12.4648 16.6904 12.1523 16.2412 12.1133C15.7725 12.1523 15.3525 12.4648 14.9814 13.0508C14.6104 13.6367 14.2686 14.291 13.9561 15.0137C13.6631 15.7168 13.3604 16.4688 13.0479 17.2695L10.2646 24.8867C10.0693 25.2969 9.81543 25.6387 9.50293 25.9121C9.20996 26.166 8.76074 26.293 8.15527 26.293C7.58887 26.293 7.12012 26.0977 6.74902 25.707C6.39746 25.3164 6.24121 24.8477 6.28027 24.3008C6.2998 24.0469 6.3584 23.8125 6.45605 23.5977L9.67871 15.2773C10.5771 13.0898 11.4756 11.3223 12.374 9.97461C13.2529 8.64648 14.542 7.97266 16.2412 7.95312C17.9209 7.97266 19.2002 8.64648 20.0791 9.97461C20.9775 11.2832 21.876 13.0508 22.7744 15.2773L25.9971 23.5977C26.0947 23.8125 26.1533 24.0469 26.1729 24.3008C26.2119 24.8477 26.0459 25.3164 25.6748 25.707C25.3232 26.0977 24.8643 26.293 24.2979 26.293C23.6533 26.293 23.1748 26.166 22.8623 25.9121C22.5693 25.6387 22.3252 25.2969 22.1299 24.8867L21.5732 23.3633H15.6846C15.1377 23.3633 14.6787 23.168 14.3076 22.7773C13.917 22.4062 13.7217 21.9473 13.7217 21.4004ZM45.4209 10.0918C45.5381 8.91992 46.1826 8.28516 47.3545 8.1875C47.9014 8.1875 48.3701 8.37305 48.7607 8.74414C49.1709 9.0957 49.376 9.54492 49.376 10.0918V24.0371C49.3564 24.584 49.1514 25.043 48.7607 25.4141C48.3701 25.7656 47.9014 25.9414 47.3545 25.9414H35.0498C33.3311 25.8828 32.0322 25.4824 31.1533 24.7402C30.2744 23.9785 29.6396 23.1289 29.249 22.1914C28.8584 21.2344 28.6631 20.2676 28.6631 19.291C28.6631 18.2754 28.8486 17.2988 29.2197 16.3613C29.6104 15.4043 30.2451 14.5547 31.124 13.8125C32.0225 13.0508 33.1553 12.6602 34.5225 12.6406H41.9053C42.4521 12.6406 42.9111 12.8359 43.2822 13.2266C43.6729 13.5977 43.8682 14.0566 43.8682 14.6035C43.8682 15.1504 43.6729 15.6191 43.2822 16.0098C42.9111 16.3809 42.4521 16.5664 41.9053 16.5664H34.4053C34.0342 16.5664 33.7119 16.7227 33.4385 17.0352C33.165 17.3281 32.96 17.6797 32.8232 18.0898C32.7061 18.4805 32.6475 18.8711 32.6475 19.2617C32.6475 19.6719 32.7061 20.082 32.8232 20.4922C32.96 20.8828 33.165 21.2344 33.4385 21.5469C33.7119 21.8398 34.0342 21.9961 34.4053 22.0156H44.6592C45.167 21.9961 45.4209 21.7422 45.4209 21.2539V10.0918ZM59.249 25.9414C57.5303 25.8828 56.2314 25.4824 55.3525 24.7402C54.4736 23.9785 53.8389 23.1289 53.4482 22.1914C53.0576 21.2344 52.8623 20.2676 52.8623 19.291C52.8623 18.2754 53.0479 17.2988 53.4189 16.3613C53.8096 15.4043 54.4443 14.5547 55.3232 13.8125C56.2217 13.0508 57.3545 12.6602 58.7217 12.6406H69.8545C70.4014 12.6406 70.8604 12.8262 71.2314 13.1973C71.6221 13.5488 71.8174 13.9785 71.8174 14.4863C71.8174 15.0137 71.6221 15.4629 71.2314 15.834C70.8604 16.1855 70.4014 16.3613 69.8545 16.3613H58.8975C58.4678 16.3613 58.0869 16.5078 57.7549 16.8008C57.4424 17.0938 57.208 17.4746 57.0518 17.9434C56.915 18.4121 56.8467 18.8711 56.8467 19.3203C56.8467 19.8086 56.915 20.2871 57.0518 20.7559C57.208 21.2246 57.4424 21.6055 57.7549 21.8984C58.0869 22.1719 58.4678 22.3184 58.8975 22.3379H69.8545C70.4014 22.3379 70.8604 22.5137 71.2314 22.8652C71.6221 23.2168 71.8174 23.6367 71.8174 24.125C71.8174 24.6328 71.6221 25.0625 71.2314 25.4141C70.8604 25.7656 70.4014 25.9414 69.8545 25.9414H59.249ZM71.4658 19.2324C71.4658 19.6035 71.2998 19.9258 70.9678 20.1992C70.6748 20.4531 70.3037 20.5801 69.8545 20.5801H60.2744C59.8252 20.5801 59.4443 20.4531 59.1318 20.1992C58.8193 19.9258 58.6631 19.6035 58.6631 19.2324C58.6631 18.8809 58.8193 18.5684 59.1318 18.2949C59.4443 18.041 59.8252 17.9141 60.2744 17.9141H69.8545C70.3037 17.9141 70.6846 18.0508 70.9971 18.3242C71.3096 18.5781 71.4658 18.8809 71.4658 19.2324ZM77.208 8.1875C77.7354 8.20703 78.1846 8.40234 78.5557 8.77344C78.9268 9.125 79.1221 9.56445 79.1416 10.0918V24.4473C79.0244 25.6191 78.3799 26.2539 77.208 26.3516C76.6611 26.3516 76.1826 26.1758 75.7725 25.8242C75.3818 25.4531 75.1865 24.9941 75.1865 24.4473V10.0918C75.2061 9.54492 75.4111 9.0957 75.8018 8.74414C76.1924 8.37305 76.6611 8.1875 77.208 8.1875ZM84.8838 8.1875C85.4111 8.20703 85.8604 8.40234 86.2314 8.77344C86.6025 9.125 86.7979 9.56445 86.8174 10.0918V24.4473C86.7002 25.6191 86.0557 26.2539 84.8838 26.3516C84.3369 26.3516 83.8584 26.1758 83.4482 25.8242C83.0576 25.4531 82.8623 24.9941 82.8623 24.4473V10.0918C82.8818 9.54492 83.0869 9.0957 83.4775 8.74414C83.8682 8.37305 84.3369 8.1875 84.8838 8.1875ZM96.5439 25.9414C94.8252 25.8828 93.5264 25.4824 92.6475 24.7402C91.7686 23.9785 91.1338 23.1289 90.7432 22.1914C90.3525 21.2344 90.1572 20.2676 90.1572 19.291C90.1572 18.2754 90.3428 17.2988 90.7139 16.3613C91.1045 15.4043 91.7393 14.5547 92.6182 13.8125C93.5166 13.0508 94.6494 12.6602 96.0166 12.6406H107.149C107.696 12.6406 108.155 12.8262 108.526 13.1973C108.917 13.5488 109.112 13.9785 109.112 14.4863C109.112 15.0137 108.917 15.4629 108.526 15.834C108.155 16.1855 107.696 16.3613 107.149 16.3613H96.1924C95.7627 16.3613 95.3818 16.5078 95.0498 16.8008C94.7373 17.0938 94.5029 17.4746 94.3467 17.9434C94.21 18.4121 94.1416 18.8711 94.1416 19.3203C94.1416 19.8086 94.21 20.2871 94.3467 20.7559C94.5029 21.2246 94.7373 21.6055 95.0498 21.8984C95.3818 22.1719 95.7627 22.3184 96.1924 22.3379H107.149C107.696 22.3379 108.155 22.5137 108.526 22.8652C108.917 23.2168 109.112 23.6367 109.112 24.125C109.112 24.6328 108.917 25.0625 108.526 25.4141C108.155 25.7656 107.696 25.9414 107.149 25.9414H96.5439ZM108.761 19.2324C108.761 19.6035 108.595 19.9258 108.263 20.1992C107.97 20.4531 107.599 20.5801 107.149 20.5801H97.5693C97.1201 20.5801 96.7393 20.4531 96.4268 20.1992C96.1143 19.9258 95.958 19.6035 95.958 19.2324C95.958 18.8809 96.1143 18.5684 96.4268 18.2949C96.7393 18.041 97.1201 17.9141 97.5693 17.9141H107.149C107.599 17.9141 107.979 18.0508 108.292 18.3242C108.604 18.5781 108.761 18.8809 108.761 19.2324ZM114.913 12.7578C114.737 12.8555 114.562 12.9043 114.386 12.9043C114.288 12.9043 114.19 12.8848 114.093 12.8457C113.819 12.7676 113.614 12.5918 113.478 12.3184C113.341 12.0449 113.312 11.7715 113.39 11.498C113.468 11.2051 113.634 10.9707 113.888 10.7949C115.118 9.89648 115.782 8.75391 115.88 7.36719C115.88 7.28906 115.851 7.23047 115.792 7.19141C115.733 7.13281 115.665 7.10352 115.587 7.10352C114.923 7.10352 114.356 6.89844 113.888 6.48828C113.419 6.05859 113.185 5.49219 113.185 4.78906C113.185 4.02734 113.409 3.42188 113.858 2.97266C114.308 2.50391 114.884 2.26953 115.587 2.26953C116.524 2.26953 117.237 2.63086 117.726 3.35352C118.233 4.05664 118.487 5.05273 118.487 6.3418C118.487 9.0957 117.296 11.2344 114.913 12.7578ZM140.812 14.3398C140.812 14.8281 140.616 15.2383 140.226 15.5703C139.854 15.8828 139.396 16.0391 138.849 16.0391H126.456C126.202 16.0391 125.997 16.0879 125.841 16.1855C125.685 16.2832 125.567 16.3906 125.489 16.5078C125.411 16.6055 125.372 16.6934 125.372 16.7715C125.372 16.8691 125.411 16.9766 125.489 17.0938C125.567 17.1914 125.685 17.2891 125.841 17.3867C125.997 17.4648 126.202 17.5137 126.456 17.5332H136.036C137.267 17.5527 138.282 17.7969 139.083 18.2656C139.884 18.7148 140.45 19.252 140.782 19.877C141.134 20.4824 141.31 21.0977 141.31 21.7227C141.31 22.3281 141.134 22.9434 140.782 23.5684C140.431 24.1738 139.854 24.7109 139.054 25.1797C138.272 25.6289 137.267 25.8535 136.036 25.8535C135.821 25.873 135.665 25.8828 135.567 25.8828H124.2C123.653 25.8828 123.185 25.7266 122.794 25.4141C122.423 25.082 122.237 24.6816 122.237 24.2129C122.237 23.7246 122.433 23.3145 122.823 22.9824C123.194 22.6699 123.653 22.5137 124.2 22.5137H136.271C136.563 22.5332 136.798 22.4941 136.974 22.3965C137.169 22.2988 137.315 22.1914 137.413 22.0742C137.511 21.957 137.56 21.8398 137.56 21.7227C137.56 21.6641 137.511 21.5664 137.413 21.4297C137.315 21.2734 137.169 21.1562 136.974 21.0781C136.798 20.9805 136.563 20.9219 136.271 20.9023H126.661C125.528 20.8828 124.591 20.6484 123.849 20.1992C123.106 19.7305 122.579 19.1934 122.267 18.5879C121.954 17.9824 121.798 17.377 121.798 16.7715C121.798 16.166 121.954 15.5703 122.267 14.9844C122.599 14.3789 123.126 13.8613 123.849 13.4316C124.591 12.9824 125.528 12.7383 126.661 12.6992C126.856 12.6797 127.003 12.6699 127.101 12.6699H138.849C139.396 12.6699 139.854 12.8359 140.226 13.168C140.616 13.4805 140.812 13.8711 140.812 14.3398ZM9.41504 51.4004C9.41504 50.8535 9.60059 50.3945 9.97168 50.0234C10.3623 49.6328 10.8311 49.4375 11.3779 49.4375H15.8604L15.0986 47.2695C14.7861 46.4688 14.4736 45.7168 14.1611 45.0137C13.8682 44.291 13.5264 43.6367 13.1357 43.0508C12.7842 42.4648 12.3838 42.1523 11.9346 42.1133C11.4658 42.1523 11.0459 42.4648 10.6748 43.0508C10.3037 43.6367 9.96191 44.291 9.64941 45.0137C9.35645 45.7168 9.05371 46.4688 8.74121 47.2695L5.95801 54.8867C5.7627 55.2969 5.50879 55.6387 5.19629 55.9121C4.90332 56.166 4.4541 56.293 3.84863 56.293C3.28223 56.293 2.81348 56.0977 2.44238 55.707C2.09082 55.3164 1.93457 54.8477 1.97363 54.3008C1.99316 54.0469 2.05176 53.8125 2.14941 53.5977L5.37207 45.2773C6.27051 43.0898 7.16895 41.3223 8.06738 39.9746C8.94629 38.6465 10.2354 37.9727 11.9346 37.9531C13.6143 37.9727 14.8936 38.6465 15.7725 39.9746C16.6709 41.2832 17.5693 43.0508 18.4678 45.2773L21.6904 53.5977C21.7881 53.8125 21.8467 54.0469 21.8662 54.3008C21.9053 54.8477 21.7393 55.3164 21.3682 55.707C21.0166 56.0977 20.5576 56.293 19.9912 56.293C19.3467 56.293 18.8682 56.166 18.5557 55.9121C18.2627 55.6387 18.0186 55.2969 17.8232 54.8867L17.2666 53.3633H11.3779C10.8311 53.3633 10.3721 53.168 10.001 52.7773C9.61035 52.4062 9.41504 51.9473 9.41504 51.4004ZM28.751 58.4902C28.6338 59.6621 27.9893 60.2969 26.8174 60.3945C26.2705 60.3945 25.792 60.209 25.3818 59.8379C24.9912 59.4863 24.7959 59.0371 24.7959 58.4902V44.5449C24.8154 43.998 25.0205 43.5488 25.4111 43.1973C25.8018 42.8262 26.2705 42.6406 26.8174 42.6406H39.1221C40.8408 42.6992 42.1396 43.1094 43.0186 43.8711C43.8975 44.6133 44.5322 45.4629 44.9229 46.4199C45.3135 47.3574 45.5088 48.3145 45.5088 49.291C45.5088 50.3066 45.3135 51.293 44.9229 52.25C44.5518 53.1875 43.917 54.0371 43.0186 54.7988C42.1396 55.541 41.0166 55.9219 39.6494 55.9414H32.2666C31.7197 55.9414 31.2607 55.7461 30.8896 55.3555C30.499 54.9844 30.3037 54.5254 30.3037 53.9785C30.3037 53.4316 30.4893 52.9727 30.8604 52.6016C31.251 52.2109 31.7197 52.0156 32.2666 52.0156H39.7666C40.1377 52.0156 40.46 51.8691 40.7334 51.5762C41.0068 51.2637 41.2021 50.9121 41.3193 50.5215C41.4561 50.1113 41.5244 49.7109 41.5244 49.3203C41.5244 48.9102 41.4561 48.5098 41.3193 48.1191C41.2021 47.709 41.0068 47.3574 40.7334 47.0645C40.46 46.752 40.1377 46.5859 39.7666 46.5664H29.5127C29.0049 46.5859 28.751 46.8398 28.751 47.3281V58.4902ZM53.0381 58.4902C52.9209 59.6621 52.2764 60.2969 51.1045 60.3945C50.5576 60.3945 50.0791 60.209 49.6689 59.8379C49.2783 59.4863 49.083 59.0371 49.083 58.4902V44.5449C49.1025 43.998 49.3076 43.5488 49.6982 43.1973C50.0889 42.8262 50.5576 42.6406 51.1045 42.6406H63.4092C65.1279 42.6992 66.4268 43.1094 67.3057 43.8711C68.1846 44.6133 68.8193 45.4629 69.21 46.4199C69.6006 47.3574 69.7959 48.3145 69.7959 49.291C69.7959 50.3066 69.6006 51.293 69.21 52.25C68.8389 53.1875 68.2041 54.0371 67.3057 54.7988C66.4268 55.541 65.3037 55.9219 63.9365 55.9414H56.5537C56.0068 55.9414 55.5479 55.7461 55.1768 55.3555C54.7861 54.9844 54.5908 54.5254 54.5908 53.9785C54.5908 53.4316 54.7764 52.9727 55.1475 52.6016C55.5381 52.2109 56.0068 52.0156 56.5537 52.0156H64.0537C64.4248 52.0156 64.7471 51.8691 65.0205 51.5762C65.2939 51.2637 65.4893 50.9121 65.6064 50.5215C65.7432 50.1113 65.8115 49.7109 65.8115 49.3203C65.8115 48.9102 65.7432 48.5098 65.6064 48.1191C65.4893 47.709 65.2939 47.3574 65.0205 47.0645C64.7471 46.752 64.4248 46.5859 64.0537 46.5664H53.7998C53.292 46.5859 53.0381 46.8398 53.0381 47.3281V58.4902ZM89.7471 54.3887V47.3281C89.7471 46.8398 89.4932 46.5859 88.9854 46.5664H78.7314C78.3604 46.5859 78.0381 46.752 77.7646 47.0645C77.4912 47.3574 77.2861 47.709 77.1494 48.1191C77.0322 48.5098 76.9736 48.9102 76.9736 49.3203C76.9736 49.7109 77.0322 50.1113 77.1494 50.5215C77.2861 50.9121 77.4912 51.2637 77.7646 51.5762C78.0381 51.8691 78.3604 52.0156 78.7314 52.0156H86.2314C86.7783 52.0156 87.2373 52.2109 87.6084 52.6016C87.999 52.9727 88.1943 53.4316 88.1943 53.9785C88.1943 54.5254 87.999 54.9844 87.6084 55.3555C87.2373 55.7461 86.7783 55.9414 86.2314 55.9414H78.8486C77.4814 55.9219 76.3486 55.541 75.4502 54.7988C74.5713 54.0371 73.9365 53.1875 73.5459 52.25C73.1748 51.293 72.9893 50.3066 72.9893 49.291C72.9893 48.3145 73.1846 47.3574 73.5752 46.4199C73.9658 45.4629 74.6006 44.6133 75.4795 43.8711C76.3584 43.1094 77.6572 42.6992 79.376 42.6406H91.6807C92.2275 42.6406 92.6963 42.8262 93.0869 43.1973C93.4775 43.5488 93.6826 43.998 93.7021 44.5449V54.3887C93.7021 54.9355 93.4971 55.3945 93.0869 55.7656C92.6963 56.1172 92.2275 56.293 91.6807 56.293C90.5088 56.1953 89.8643 55.5605 89.7471 54.3887ZM98.0967 46.332C98.4678 45.3945 99.0928 44.5547 99.9717 43.8125C100.87 43.0508 102.003 42.6602 103.37 42.6406H114.386C114.933 42.6406 115.392 42.8359 115.763 43.2266C116.153 43.5977 116.349 44.0566 116.349 44.6035C116.349 45.1504 116.153 45.6191 115.763 46.0098C115.392 46.3809 114.933 46.5664 114.386 46.5664H103.253C102.882 46.5664 102.56 46.7227 102.286 47.0352C102.013 47.3281 101.798 47.6797 101.642 48.0898C101.505 48.5 101.437 48.8906 101.437 49.2617V54.3887C101.319 55.5605 100.675 56.1953 99.5029 56.293C98.9561 56.293 98.4775 56.1172 98.0674 55.7656C97.6768 55.3945 97.4814 54.9355 97.4814 54.3887V49.291H97.5107C97.5107 48.2754 97.7061 47.2891 98.0967 46.332ZM125.255 55.9414C123.536 55.8828 122.237 55.4824 121.358 54.7402C120.479 53.9785 119.845 53.1289 119.454 52.1914C119.063 51.2344 118.868 50.2676 118.868 49.291C118.868 48.2754 119.054 47.2988 119.425 46.3613C119.815 45.4043 120.45 44.5547 121.329 43.8125C122.228 43.0508 123.36 42.6602 124.728 42.6406H135.86C136.407 42.6406 136.866 42.8262 137.237 43.1973C137.628 43.5488 137.823 43.9785 137.823 44.4863C137.823 45.0137 137.628 45.4629 137.237 45.834C136.866 46.1855 136.407 46.3613 135.86 46.3613H124.903C124.474 46.3613 124.093 46.5078 123.761 46.8008C123.448 47.0938 123.214 47.4746 123.058 47.9434C122.921 48.4121 122.853 48.8711 122.853 49.3203C122.853 49.8086 122.921 50.2871 123.058 50.7559C123.214 51.2246 123.448 51.6055 123.761 51.8984C124.093 52.1719 124.474 52.3184 124.903 52.3379H135.86C136.407 52.3379 136.866 52.5137 137.237 52.8652C137.628 53.2168 137.823 53.6367 137.823 54.125C137.823 54.6328 137.628 55.0625 137.237 55.4141C136.866 55.7656 136.407 55.9414 135.86 55.9414H125.255ZM137.472 49.2324C137.472 49.6035 137.306 49.9258 136.974 50.1992C136.681 50.4531 136.31 50.5801 135.86 50.5801H126.28C125.831 50.5801 125.45 50.4531 125.138 50.1992C124.825 49.9258 124.669 49.6035 124.669 49.2324C124.669 48.8809 124.825 48.5684 125.138 48.2949C125.45 48.041 125.831 47.9141 126.28 47.9141H135.86C136.31 47.9141 136.69 48.0508 137.003 48.3242C137.315 48.5781 137.472 48.8809 137.472 49.2324ZM143.214 38.1875C143.741 38.207 144.19 38.4023 144.562 38.7734C144.933 39.125 145.128 39.5645 145.147 40.0918V54.4473C145.03 55.6191 144.386 56.2539 143.214 56.3516C142.667 56.3516 142.188 56.1758 141.778 55.8242C141.388 55.4531 141.192 54.9941 141.192 54.4473V40.0918C141.212 39.5449 141.417 39.0957 141.808 38.7441C142.198 38.373 142.667 38.1875 143.214 38.1875Z" fill="white"/>
</svg>
